<svg width="70" height="64" viewBox="0 0 70 64" fill="none" xmlns="http://www.w3.org/2000/svg">
<path d="M64.3548 15.8065H56.3375C55.8127 13.2336 53.5331 11.2903 50.8065 11.2903C48.0798 11.2903 45.8002 13.2336 45.2754 15.8065H41.3872C39.8794 15.8065 38.4615 16.3947 37.3959 17.4603L34.3958 20.4593C33.7646 21.0905 32.8919 21.4516 31.9999 21.4516H30.4839V15.8065H31.6129C32.8583 15.8065 33.871 14.7937 33.871 13.5484V2.25806C33.871 1.01271 32.8583 0 31.6129 0H6.77419C5.52884 0 4.51613 1.01271 4.51613 2.25806V13.5484C4.51613 14.7937 5.52884 15.8065 6.77419 15.8065H7.90323V21.9301C5.91253 22.8045 4.51613 24.788 4.51613 27.0968V38.5012C1.94328 39.026 0 41.3067 0 44.0323C0 46.7578 1.94328 49.0385 4.51613 49.5633V55.3226C4.51613 58.4351 7.04873 60.9677 10.1613 60.9677H20.3226C20.3226 62.2131 21.3353 63.2258 22.5806 63.2258H36.129C37.3744 63.2258 38.3871 62.2131 38.3871 60.9677H44.0323C47.1448 60.9677 49.6774 58.4351 49.6774 55.3226V50.8065C49.6774 48.9392 51.1973 47.4194 53.0645 47.4194H58.7097V45.1613H53.0645C49.952 45.1613 47.4194 47.6939 47.4194 50.8065V55.3226C47.4194 57.1898 45.8995 58.7097 44.0323 58.7097H38.3871C38.3871 57.4643 37.3744 56.4516 36.129 56.4516H35.8512L31.8792 42.551C31.56 41.4274 30.5214 40.6452 29.3548 40.6452C28.1883 40.6452 27.1497 41.4274 26.8305 42.551L22.8585 56.4516H22.5806C21.3353 56.4516 20.3226 57.4643 20.3226 58.7097H10.1613C8.29409 58.7097 6.77419 57.1898 6.77419 55.3226V49.5633C9.34704 49.0385 11.2903 46.7589 11.2903 44.0323C11.2903 41.3056 9.34704 39.026 6.77419 38.5012V27.0968C6.77419 25.2296 8.29409 23.7097 10.1613 23.7097H14.6774V21.4516H10.1613V15.8065H28.2258V21.4516H16.9355V23.7097H31.9999C33.5077 23.7097 34.9256 23.1215 35.9912 22.0558L38.9913 19.0568C39.6225 18.4256 40.4952 18.0645 41.3872 18.0645H45.2754C45.8002 20.6374 48.0798 22.5806 50.8065 22.5806C53.5331 22.5806 55.8127 20.6374 56.3375 18.0645H64.3548C66.222 18.0645 67.7419 19.5844 67.7419 21.4516V41.7742C67.7419 43.6414 66.222 45.1613 64.3548 45.1613H60.9677V47.4194H64.3548C67.4674 47.4194 70 44.8868 70 41.7742V21.4516C70 18.3391 67.4674 15.8065 64.3548 15.8065ZM29.0015 43.1695C29.0919 42.8569 29.6189 42.8569 29.7093 43.1695L33.5027 56.4516H25.2059L29.0015 43.1695ZM22.5806 58.7097H36.129L36.1301 60.9677H22.5806V58.7097ZM9.03226 44.0323C9.03226 45.8995 7.51236 47.4194 5.64516 47.4194C3.77796 47.4194 2.25806 45.8995 2.25806 44.0323C2.25806 42.1651 3.77796 40.6452 5.64516 40.6452C7.51236 40.6452 9.03226 42.1651 9.03226 44.0323ZM27.0968 13.5484V9.03226H31.614L31.6151 13.5484H27.0968ZM18.0645 6.77419H13.5484V2.25806H18.0645V6.77419ZM20.3226 2.25806H24.8387V6.77419H20.3226V2.25806ZM18.0645 9.03226V13.5484H13.5484V9.03226H18.0645ZM20.3226 9.03226H24.8387V13.5484H20.3226V9.03226ZM31.614 6.77419H27.0968V2.25806H31.6129L31.614 6.77419ZM11.2903 2.25806V6.77419H6.77419V2.25806H11.2903ZM6.77419 9.03226H11.2903V13.5484H6.77419V9.03226ZM50.8065 20.3226C48.9392 20.3226 47.4194 18.8027 47.4194 16.9355C47.4194 15.0683 48.9392 13.5484 50.8065 13.5484C52.6737 13.5484 54.1935 15.0683 54.1935 16.9355C54.1935 18.8027 52.6737 20.3226 50.8065 20.3226Z" fill="#381DDB"/>
</svg>
