<svg width="17" height="20" viewBox="0 0 17 20" fill="none" xmlns="http://www.w3.org/2000/svg">
<path fill-rule="evenodd" clip-rule="evenodd" d="M11.0557 1.92859H10.0364V6.38916C10.0364 6.78721 10.0705 7.05698 10.127 7.22793C10.2295 7.51335 10.4566 7.64685 10.7856 7.64685C11.1585 7.64685 11.5464 7.42067 11.9534 6.95417V7.56921H12.9753V1.92859H11.9534V6.24C11.7265 6.5601 11.512 6.71846 11.3076 6.71846C11.1707 6.71846 11.0903 6.63744 11.0679 6.47908C11.0557 6.44563 11.0557 6.32133 11.0557 6.08164V1.92859ZM6.49596 2.43898C6.27867 2.72409 6.17617 3.16481 6.17617 3.76788V5.74312C6.17617 6.34251 6.27867 6.78752 6.49596 7.06956C6.77862 7.45442 7.17668 7.64685 7.68614 7.64685C8.19806 7.64685 8.59581 7.45442 8.87847 7.06956C9.09269 6.78752 9.19519 6.34281 9.19519 5.74312V3.76788C9.19519 3.16481 9.09269 2.72379 8.87847 2.43898C8.59581 2.0532 8.19806 1.86046 7.68614 1.86046C7.17668 1.86046 6.77862 2.0532 6.49596 2.43898ZM4.24757 2.97238L3.44287 0H2.25054C2.36855 0.34691 2.48904 0.694495 2.60955 1.04216L2.60956 1.04218L2.60957 1.0422L2.60959 1.04226C2.7329 1.39798 2.85623 1.75379 2.97698 2.10905C3.34067 3.16481 3.56747 3.96061 3.67028 4.50384V7.56951H4.80338V4.50384L6.16696 0H5.02067L4.24757 2.97238ZM14.6342 19.5938C15.5104 19.4959 16.2381 18.8391 16.4431 17.9494C16.7349 16.6821 16.7362 15.2983 16.7362 13.9934V13.9689C16.7362 12.6711 16.7362 11.2969 16.4471 10.0373C16.2417 9.14731 15.5138 8.49084 14.6375 8.39294C12.5623 8.16123 10.4618 8.16 8.37084 8.16123C6.27928 8.16 4.17882 8.16123 2.10353 8.39294C1.22731 8.49054 0.499949 9.14731 0.295243 10.0373C0.00368318 11.3049 0 12.6884 0 13.9934C0 15.2983 0 16.6821 0.291867 17.9494C0.496266 18.8394 1.22425 19.4959 2.10046 19.5938C4.17545 19.8255 6.27622 19.8267 8.36716 19.8255C10.459 19.8267 12.5586 19.8255 14.6342 19.5938ZM12.7714 12.3787C13.0636 11.9966 13.4653 11.8066 13.9828 11.8066C14.4904 11.8066 14.8927 11.9969 15.1754 12.3781C15.3875 12.6605 15.4884 13.0969 15.4884 13.6932V14.8493H13.4653V15.8394C13.4653 16.3556 13.6354 16.6134 13.9828 16.6134C14.2317 16.6134 14.3771 16.4784 14.4348 16.208C14.4437 16.153 14.4569 15.9281 14.4569 15.523H15.4884V15.67C15.4884 15.9962 15.4765 16.2206 15.467 16.3218C15.4332 16.5459 15.3534 16.7487 15.2306 16.928C14.9508 17.3334 14.5361 17.5332 14.0079 17.5332C13.4788 17.5332 13.0759 17.3426 12.784 16.9614C12.5686 16.6818 12.459 16.2423 12.459 15.6491V13.6938C12.459 13.0975 12.5569 12.6611 12.7714 12.3787ZM13.4659 14.0078H14.4775V13.4912C14.4775 12.9753 14.3081 12.7169 13.9736 12.7169C13.6357 12.7169 13.4659 12.975 13.4659 13.4912V14.0078ZM6.81812 16.1404C6.59378 16.4575 6.3817 16.6137 6.17853 16.6137C6.0435 16.6137 5.96646 16.5342 5.94191 16.3771C5.9327 16.3445 5.9327 16.2212 5.9327 15.9842V11.8748H4.92114V16.2878C4.92114 16.6821 4.95521 16.9485 5.01045 17.1179C5.11204 17.4009 5.33669 17.5335 5.66201 17.5335C6.03429 17.5335 6.41608 17.3088 6.81812 16.8479V17.4568H7.8303V11.8748H6.81812V16.1404ZM9.71633 12.412C10.0426 12.0099 10.3897 11.8068 10.7617 11.8068C11.1637 11.8068 11.435 12.0185 11.5697 12.4371C11.6376 12.6615 11.6722 13.0304 11.6722 13.5589V15.7815C11.6722 16.298 11.6376 16.6697 11.5697 16.9063C11.4347 17.3219 11.164 17.5336 10.7617 17.5336C10.4017 17.5336 10.0548 17.3335 9.71633 16.9158V17.4566H8.70508V9.96533H9.71633V12.412ZM10.2203 16.6138C10.5124 16.6138 10.6604 16.3652 10.6604 15.8607V13.4785C10.6604 12.9752 10.5121 12.7167 10.2203 12.7167C10.0542 12.7167 9.88513 12.7959 9.71602 12.9632V16.3649C9.88513 16.5343 10.0542 16.6138 10.2203 16.6138ZM1.24805 11.0196H2.4373V17.4563H3.56242V11.0196H4.77377V9.96533H1.24805V11.0196ZM8.17383 5.9352C8.17383 6.45694 8.01578 6.71811 7.68647 6.71811C7.35685 6.71811 7.19849 6.45725 7.19849 5.9352V3.56251C7.19849 3.04077 7.35685 2.78052 7.68647 2.78052C8.01578 2.78052 8.17383 3.04047 8.17383 3.56251V5.9352Z" fill="#222222"/>
</svg>
