<svg width="17" height="16" viewBox="0 0 17 16" fill="none" xmlns="http://www.w3.org/2000/svg">
<path fill-rule="evenodd" clip-rule="evenodd" d="M6.73991 14.8556C6.17317 15.0193 5.5599 15.1021 4.91642 15.1021C4.19983 15.1021 3.51104 15.0199 2.86877 14.8574C1.62592 14.5438 0.707524 13.9493 0.278539 13.1832C0.0936519 12.852 0 12.4992 0 12.1336C0 11.7572 0.0900262 11.3754 0.267663 10.9971C0.948602 9.54584 2.7437 8.56944 4.73214 8.56944H4.78893C4.62761 8.28486 4.54967 7.99001 4.54967 7.68005C4.54967 7.52598 4.57021 7.36889 4.61129 7.20877C2.52558 7.16164 0.964916 5.63421 0.964916 3.6204C0.964916 2.1987 2.10143 0.813261 3.72674 0.253767C4.21312 0.0857975 4.70918 0 5.19677 0H9.65701C9.80867 0 9.94341 0.0984853 9.99053 0.24289C10.0377 0.386691 9.9857 0.544993 9.86305 0.633811L8.8655 1.35584C8.80569 1.39813 8.73379 1.42109 8.65947 1.42109H8.30238C8.76339 1.97394 9.03347 2.76243 9.03347 3.64759C9.03347 4.62459 8.53923 5.54842 7.63957 6.25232C6.94474 6.79368 6.91755 6.94292 6.91755 7.25167C6.92601 7.42145 7.40997 7.97551 7.94409 8.35314C9.18815 9.23286 9.65097 10.0963 9.65097 11.5367C9.65037 13.0418 8.50782 14.342 6.73991 14.8556ZM16.8126 7.20515C16.8126 7.39849 16.6549 7.55559 16.4622 7.55559H13.9275V10.0914C13.9275 10.2848 13.7698 10.4419 13.5783 10.4419H12.8563C12.6617 10.4419 12.5046 10.2848 12.5046 10.0914V7.55559H9.9718C9.77846 7.55559 9.62137 7.3997 9.62137 7.20515V6.48433C9.62137 6.29098 9.77846 6.13268 9.9718 6.13268H12.5046V3.59925C12.5046 3.4053 12.6617 3.24881 12.8563 3.24881H13.5783C13.7698 3.24881 13.9275 3.4053 13.9275 3.59925V6.13268H16.4616C16.6543 6.13268 16.812 6.28978 16.812 6.48312L16.8126 7.20515ZM6.28698 9.91972L6.28697 9.91971C6.24475 9.8907 6.20186 9.86122 6.15813 9.83165C5.85421 9.7386 5.53157 9.69026 5.20107 9.68603H5.16119C3.64222 9.68603 2.31055 10.605 2.31055 11.6539C2.31055 12.7959 3.45189 13.6883 4.90803 13.6883C6.8288 13.6883 7.80217 13.0249 7.80217 11.7198C7.80217 11.5965 7.78767 11.4684 7.75686 11.3397C7.62745 10.8354 7.16588 10.5199 6.46771 10.0426L6.45963 10.0371C6.40306 9.99948 6.34567 9.96004 6.28698 9.91972ZM5.38397 6.05656H5.38276H5.36887C4.40395 6.02635 3.43964 4.88621 3.26684 3.56663C3.17077 2.82889 3.32605 2.16547 3.6928 1.74676C3.92905 1.47608 4.24021 1.33228 4.58884 1.33228L4.62811 1.33348C5.61357 1.36188 6.55794 2.46153 6.73014 3.78233C6.82802 4.52127 6.66307 5.21732 6.29088 5.64147C6.05343 5.91336 5.7471 6.05656 5.38397 6.05656Z" fill="#222222"/>
</svg>
